<svg xmlns="http://www.w3.org/2000/svg" viewBox="0 0 64 64" role="img" aria-label="cloud.boostclicks">
  <defs>
    <linearGradient id="bg" x1="0" x2="1" y1="0" y2="1">
      <stop offset="0%" stop-color="#2aabe2"/>
      <stop offset="100%" stop-color="#1b6fd1"/>
    </linearGradient>
    <linearGradient id="glow" x1="0" x2="0" y1="0" y2="1">
      <stop offset="0%" stop-color="#ffffff" stop-opacity="0.95"/>
      <stop offset="100%" stop-color="#ffffff" stop-opacity="0.75"/>
    </linearGradient>
  </defs>
  <rect width="64" height="64" rx="16" fill="url(#bg)"/>
  <g filter="url(#shadow)">
    <path fill="#0d3c8f" opacity="0.25" d="M12 38c0-7 6-12 13.5-12 1 0 2 .1 3 .3C30.4 21 35 18 40.2 18 47.2 18 53 23.5 53 30.2c0 .9-.1 1.8-.3 2.7 3.1 1.3 5.3 4.4 5.3 8 0 4.8-3.9 8.7-8.7 8.7H20c-4.4 0-8-3.6-8-8z"/>
  </g>
  <path fill="url(#glow)" d="M14 36.5c0-6.3 5.4-11.5 12-11.5 1.1 0 2.3.1 3.3.4 2-4.9 6.7-8.4 12.2-8.4 7.1 0 12.9 5.8 12.9 13 0 1.1-.1 2.2-.4 3.2 2.9 1.4 4.9 4.3 4.9 7.7C58.9 45 55 49 50.4 49H21.2C17 49 14 46 14 41.7z"/>
  <path fill="#0f4d9e" d="M25.3 34.8c-.6 2.6-1.6 7.6-2.3 10-.6 2.3.9 3.1 2.4 2.5 1.5-.6 9.4-5.7 10.9-6.8 1.5-1.1 1-1.8-.2-2.5-1.2-.7-3.1-1.9-4.6-3.1-1.4-1.2-4.6-2.7-6.2-.2z"/>
  <path fill="#ffffff" d="M26.1 33.7c5.1-3 11.3-6 16.9-8.9 1-.5 1.9.2 1.5 2.2-.4 1.9-1.4 6.3-2.1 9.3-.3 1.5-1 2.2-2.2 1.3-1.9-1.5-4.6-3.7-6.9-3.8-.8 0-1.5.5-.5 1.3 1.7 1.4 3.6 2.6 5.4 3.8 1.2.8.7 1.6-.3 2.3-1.3.9-6.1 3.9-8.4 5.3-.8.5-1.5.2-1.3-.7.6-2.9 2-9.9 2.4-11.9.1-.7-.4-1.1-.9-.8-.9.6-2.9 1.8-4 2.5-.6.4-1.3-.1-1-1.3.2-1 1.1-2.2 2.6-3.1z"/>
</svg>
